<?xml version="1.0" standalone="no"?>
<!DOCTYPE svg PUBLIC "-//W3C//DTD SVG 20010904//EN"
 "http://www.w3.org/TR/2001/REC-SVG-20010904/DTD/svg10.dtd">
<svg version="1.0" xmlns="http://www.w3.org/2000/svg"
 width="500.000000pt" height="500.000000pt" viewBox="0 0 500.000000 500.000000"
 preserveAspectRatio="xMidYMid meet">
 <style>
  @media (prefers-color-scheme: light) {
      path { fill: #000000; }
    }
  @media (prefers-color-scheme: dark) {
      path { fill: #ffffff; }
    }
</style>

<g transform="translate(0.000000,500.000000) scale(0.100000,-0.100000)"
 stroke="none">
<path d="M1340 3665 l-1165 -1165 1165 -1165 1165 -1165 1165 1165 1165 1165
-1165 1165 -1165 1165 -1165 -1165z m2260 -2260 l-1095 -1095 -1095 1095
-1095 1095 1095 1095 1095 1095 1095 -1095 1095 -1095 -1095 -1095z"/>
<path d="M1925 3068 c-3 -7 -93 -265 -200 -573 -121 -345 -203 -568 -217 -582
-11 -12 -40 -30 -64 -40 -24 -10 -44 -21 -44 -25 0 -5 59 -8 130 -8 72 0 130
4 130 8 0 5 -18 17 -40 27 -24 11 -43 27 -46 40 -5 21 64 252 92 308 l15 27
203 0 204 0 47 -139 c55 -167 57 -205 8 -236 -18 -11 -32 -23 -33 -27 0 -5
106 -8 235 -8 129 0 235 3 235 8 0 4 -19 15 -40 25 -24 11 -47 32 -57 50 -9
18 -103 284 -208 592 l-191 560 -77 3 c-56 2 -79 -1 -82 -10z m63 -503 l90
-280 -190 -3 c-105 -1 -193 0 -196 2 -2 3 40 134 94 290 55 157 102 282 105
278 4 -4 47 -133 97 -287z"/>
<path d="M2650 3061 c0 -5 11 -12 25 -15 14 -4 34 -15 45 -26 19 -19 20 -36
20 -564 l0 -545 -26 -20 c-14 -11 -34 -23 -45 -26 -63 -20 16 -25 430 -25
l449 0 6 98 c3 53 8 125 10 160 2 34 0 62 -4 62 -5 0 -33 -51 -64 -114 -34
-70 -67 -123 -86 -140 -32 -26 -32 -26 -211 -26 l-179 0 0 539 c0 360 4 548
11 569 7 21 23 37 50 49 21 10 39 21 39 26 0 4 -106 7 -235 7 -131 0 -235 -4
-235 -9z"/>
</g>

</svg>
